# Blender v2.77 (sub 0) OBJ File: ''
# www.blender.org
mtllib house.mtl
o Cube
v 2.286159 0.073593 -2.218875
v 2.286159 0.073593 2.218875
v -2.286160 0.073593 2.218875
v -2.286158 0.073593 -2.218876
v 2.286160 2.435885 -2.218874
v 2.286158 2.435885 2.218877
v -2.286160 2.435885 2.218874
v -2.286159 2.435885 -2.218875
v 3.000390 2.435885 -2.912083
v 3.000386 2.435885 2.912086
v -3.000388 2.435885 -2.912084
v -3.000389 2.435885 2.912083
v -0.000000 3.673661 0.000000
v 2.286159 0.073593 -1.584911
v 2.286159 0.073593 -0.950947
v 2.286159 0.073593 -0.316982
v 2.286159 0.073593 0.316982
v 2.286159 0.073593 0.950947
v 2.286159 0.073593 1.584911
v 1.632971 0.073593 -2.218875
v 0.979783 0.073593 -2.218876
v 0.326594 0.073593 -2.218876
v -0.326594 0.073593 -2.218876
v -0.979782 0.073593 -2.218876
v -1.632970 0.073593 -2.218876
v 2.286159 0.411063 -2.218875
v 2.286160 0.748534 -2.218875
v 2.286160 1.086004 -2.218875
v 2.286160 1.423474 -2.218874
v 2.286160 1.760945 -2.218874
v 2.286160 2.098415 -2.218874
v 1.632971 0.073593 2.218875
v 0.979782 0.073593 2.218875
v 0.326594 0.073593 2.218875
v -0.326594 0.073593 2.218875
v -0.979783 0.073593 2.218875
v -1.632971 0.073593 2.218875
v 2.286159 0.411063 2.218875
v 2.286159 0.748534 2.218876
v 2.286158 1.086004 2.218876
v 2.286158 1.423474 2.218876
v 2.286158 1.760945 2.218876
v 2.286158 2.098415 2.218876
v -2.286159 0.073593 1.584910
v -2.286159 0.073593 0.950946
v -2.286159 0.073593 0.316981
v -2.286159 0.073593 -0.316983
v -2.286159 0.073593 -0.950947
v -2.286159 0.073593 -1.584912
v -2.286160 0.411063 2.218875
v -2.286160 0.748534 2.218875
v -2.286160 1.086004 2.218875
v -2.286160 1.423474 2.218875
v -2.286160 1.760945 2.218875
v -2.286160 2.098415 2.218874
v -2.286158 0.411063 -2.218876
v -2.286159 0.748534 -2.218876
v -2.286159 1.086004 -2.218876
v -2.286159 1.423474 -2.218875
v -2.286159 1.760945 -2.218875
v -2.286159 2.098415 -2.218875
v 2.286160 2.435885 -1.584910
v 2.286160 2.435885 -0.950945
v 2.286159 2.435885 -0.316981
v 2.286159 2.435885 0.316983
v 2.286159 2.435885 0.950948
v 2.286158 2.435885 1.584912
v 1.632972 2.435885 -2.218874
v 0.979783 2.435885 -2.218874
v 0.326595 2.435885 -2.218875
v -0.326594 2.435885 -2.218875
v -0.979782 2.435885 -2.218875
v -1.632971 2.435885 -2.218875
v 1.632970 2.435885 2.218876
v 0.979781 2.435885 2.218876
v 0.326593 2.435885 2.218876
v -0.326595 2.435885 2.218875
v -0.979783 2.435885 2.218875
v -1.632972 2.435885 2.218875
v -2.286160 2.435885 1.584910
v -2.286160 2.435885 0.950946
v -2.286160 2.435885 0.316982
v -2.286160 2.435885 -0.316983
v -2.286159 2.435885 -0.950947
v -2.286159 2.435885 -1.584911
v 1.632972 2.098415 -2.218875
v 0.979783 2.098415 -2.218875
v 0.326595 2.098415 -2.218875
v -0.326594 2.098415 -2.218875
v -0.979782 2.098415 -2.218875
v -1.632971 2.098415 -2.218875
v 1.632972 1.760945 -2.218875
v 0.979783 1.760945 -2.218875
v 0.326595 1.760945 -2.218875
v -0.326594 1.760945 -2.218875
v -0.979782 1.760945 -2.218875
v -1.632970 1.760945 -2.218875
v 1.632972 1.423474 -2.218875
v 0.979783 1.423474 -2.218875
v 0.326595 1.423474 -2.218875
v -0.326594 1.423474 -2.218875
v -1.632970 1.423474 -2.218875
v 1.632971 1.086004 -2.218875
v 0.979783 1.086004 -2.218875
v 0.326595 1.086004 -2.218875
v -0.326594 1.086004 -2.218875
v -0.979782 1.086004 -2.218875
v -1.632970 1.086004 -2.218875
v 1.632971 0.748534 -2.218875
v 0.979783 0.748534 -2.218875
v 0.326595 0.748534 -2.218875
v -0.326594 0.748534 -2.218875
v -0.979782 0.748534 -2.218876
v -1.632970 0.748534 -2.218876
v 1.632971 0.411063 -2.218875
v 0.979783 0.411063 -2.218875
v 0.326595 0.411063 -2.218876
v -0.326594 0.411063 -2.218876
v -0.979782 0.411063 -2.218876
v -1.632970 0.411063 -2.218876
v -2.286159 0.411063 1.584911
v -2.286159 0.411063 0.950946
v -2.286159 0.411063 0.316982
v -2.286159 0.411063 -0.316983
v -2.286159 0.411063 -0.950947
v -2.286159 0.411063 -1.584912
v -2.286159 0.748534 1.584911
v -2.286159 0.748534 0.950946
v -2.286159 0.748534 0.316982
v -2.286159 0.748534 -0.316983
v -2.286159 0.748534 -0.950947
v -2.286159 0.748534 -1.584912
v -2.286159 1.086004 1.584911
v -2.286159 1.086004 0.950946
v -2.286159 1.086004 0.316982
v -2.286159 1.086004 -0.316983
v -2.286159 1.086004 -0.950947
v -2.286159 1.086004 -1.584911
v -2.286159 1.423474 1.584911
v -0.326594 1.760945 -2.123106
v -2.286159 1.423474 0.316982
v -2.286159 1.423474 -0.316982
v -2.286159 1.423474 -0.950947
v -2.286159 1.423474 -1.584911
v -2.286160 1.760945 1.584910
v -2.286160 1.760945 0.950946
v -2.286159 1.760945 0.316982
v -2.286159 1.760945 -0.316983
v -2.286159 1.760945 -0.950947
v -2.286159 1.760945 -1.584911
v -2.286160 2.098415 1.584910
v -2.286160 2.098415 0.950946
v -2.286160 2.098415 0.316982
v -2.286160 2.098415 -0.316983
v -2.286159 2.098415 -0.950947
v -2.286159 2.098415 -1.584911
v 1.632970 0.411063 2.218875
v 0.979782 0.411063 2.218875
v 0.326594 0.411063 2.218875
v -0.326595 0.411063 2.218875
v -0.979783 0.411063 2.218875
v -1.632971 0.411063 2.218875
v 1.632970 0.748534 2.218876
v 0.979782 0.748534 2.218875
v 0.326594 0.748534 2.218875
v -0.326595 0.748534 2.218875
v -0.979783 0.748534 2.218875
v -1.632971 0.748534 2.218875
v 1.632970 1.086004 2.218876
v 0.979782 1.086004 2.218875
v 0.326594 1.086004 2.218875
v -0.326595 1.086004 2.218875
v -0.979783 1.086004 2.218875
v -1.632971 1.086004 2.218875
v 1.632970 1.423474 2.218876
v 0.979782 1.086004 2.138550
v 0.326593 1.423474 2.218875
v -0.326595 1.423474 2.218875
v -0.979783 1.423474 2.218875
v -1.632971 1.423474 2.218875
v 1.632970 1.760945 2.218876
v 0.979782 1.760945 2.218876
v 0.326593 1.760945 2.218876
v -0.326595 1.760945 2.218875
v -0.979783 1.760945 2.218875
v -1.632971 1.760945 2.218875
v 1.632970 2.098415 2.218876
v 0.979782 2.098415 2.218876
v 0.326593 2.098415 2.218876
v -0.326595 2.098415 2.218875
v -0.979783 2.098415 2.218875
v -1.632971 2.098415 2.218875
v 2.286159 0.411063 -1.584911
v 2.286159 0.411063 -0.950946
v 2.286159 0.411063 -0.316982
v 2.286159 0.411063 0.316982
v 2.286159 0.411063 0.950947
v 2.286159 0.411063 1.584911
v 2.286159 0.748534 -1.584911
v 2.286159 0.748534 -0.950946
v 2.286159 0.748534 -0.316982
v 2.286159 0.748534 0.316983
v 2.286159 0.748534 0.950947
v 2.286159 0.748534 1.584911
v 2.286160 1.086004 -1.584910
v 2.286159 1.086004 -0.950946
v 2.286159 1.086004 -0.316981
v 2.286159 1.086004 0.316983
v 2.286159 1.086004 0.950947
v 2.286159 1.086004 1.584912
v 2.286160 1.423474 -1.584910
v 1.632970 1.086004 2.218876
v 2.286159 1.423474 -0.316981
v 2.286159 1.423474 0.316983
v 2.215209 1.086004 -1.584910
v 2.286159 1.423474 1.584912
v 2.286160 1.760945 -1.584910
v 2.286160 1.760945 -0.950946
v 2.286159 1.760945 -0.316981
v 2.286159 1.760945 0.316983
v 2.286159 1.760945 0.950948
v 2.286159 1.760945 1.584912
v 2.286160 2.098415 -1.584910
v 2.286160 2.098415 -0.950946
v 2.286159 2.098415 -0.316981
v 2.286159 2.098415 0.316983
v 2.286159 2.098415 0.950948
v 2.286159 2.098415 1.584912
v 1.632971 0.073593 -1.584911
v 0.979783 0.073593 -1.584911
v 0.326594 0.073593 -1.584911
v -0.326594 0.073593 -1.584911
v -0.979782 0.073593 -1.584911
v -1.632970 0.073593 -1.584912
v 1.632971 0.073593 -0.950947
v 0.979783 0.073593 -0.950947
v 0.326594 0.073593 -0.950947
v -0.326594 0.073593 -0.950947
v -0.979782 0.073593 -0.950947
v -1.632970 0.073593 -0.950947
v 1.632971 0.073593 -0.316982
v 0.979783 0.073593 -0.316982
v 0.326594 0.073593 -0.316983
v -0.326594 0.073593 -0.316983
v -0.979782 0.073593 -0.316983
v -1.632970 0.073593 -0.316983
v 1.632971 0.073593 0.316982
v 0.979782 0.073593 0.316982
v 0.326594 0.073593 0.316982
v -0.326594 0.073593 0.316982
v -0.979782 0.073593 0.316982
v -1.632971 0.073593 0.316982
v 1.632971 0.073593 0.950946
v 0.979782 0.073593 0.950946
v 0.326594 0.073593 0.950946
v -0.326594 0.073593 0.950946
v -0.979783 0.073593 0.950946
v -1.632971 0.073593 0.950946
v 1.632971 0.073593 1.584911
v 0.979782 0.073593 1.584911
v 0.326594 0.073593 1.584911
v -0.326594 0.073593 1.584911
v -0.979783 0.073593 1.584911
v -1.632971 0.073593 1.584910
v -0.326594 0.073593 2.218875
v -0.979783 0.073593 2.218875
v -0.326595 0.411063 2.218875
v -0.979783 0.411063 2.218875
v -0.326595 0.748534 2.218875
v -0.979783 0.748534 2.218875
v -0.326595 1.086004 2.218875
v -0.979783 1.086004 2.218875
v -0.326594 0.073593 2.112770
v -0.979783 0.073593 2.112770
v -0.326595 0.411063 2.112770
v -0.979783 0.411063 2.112770
v -0.326595 0.748534 2.112770
v -0.979783 0.748534 2.112770
v -0.326595 1.086004 2.112770
v -0.979783 1.086004 2.112770
v 2.207667 1.086004 0.316983
v 2.207667 1.086004 0.950947
v 2.207667 1.086004 1.584912
v 2.207668 1.423474 0.316983
v 2.207667 1.423474 0.950947
v 2.207667 1.423474 1.584912
v 2.207668 1.760945 0.316983
v 2.207667 1.760945 0.950948
v 2.207667 1.760945 1.584912
v 2.215209 1.086004 -0.950946
v 2.215209 1.086004 -0.316981
v 2.215209 1.423474 -1.584910
v 1.632970 1.086004 2.138550
v 2.215209 1.423474 -0.316981
v 2.215209 1.760945 -1.584910
v 2.215209 1.760945 -0.950946
v 2.215209 1.760945 -0.316981
v 0.979782 1.086004 2.218875
v 0.326594 1.086004 2.218875
v 1.632970 1.423474 2.218876
v 0.326593 1.423474 2.218875
v 1.632970 1.760945 2.218876
v 0.979782 1.760945 2.218876
v 0.326593 1.760945 2.218876
v 2.215209 1.086004 -1.584910
v 2.215209 1.086004 -0.950946
v 2.215209 1.086004 -0.316981
v 2.215209 1.423474 -1.584910
v 2.215209 1.423474 -0.316981
v 2.215209 1.760945 -1.584910
v 2.215209 1.760945 -0.950946
v 2.215209 1.760945 -0.316981
v 0.326594 1.086004 2.138550
v 1.632970 1.423474 2.138551
v 0.979782 1.423474 2.138550
v 0.326593 1.423474 2.138550
v 1.632970 1.760945 2.138551
v 0.979782 1.760945 2.138551
v 0.326593 1.760945 2.138550
v 2.215209 1.086004 -1.584910
v 2.215209 1.086004 -0.950946
v 2.215209 1.086004 -0.316981
v 2.215209 1.423474 -1.584910
v 2.215209 1.423474 -0.950946
v 2.215209 1.423474 -0.316981
v 2.215209 1.760945 -1.584910
v 2.215209 1.760945 -0.950946
v 2.215209 1.760945 -0.316981
v -2.148618 1.086004 1.584911
v -2.148618 1.086004 0.950946
v -2.148618 1.086004 0.316982
v -2.148618 1.423474 1.584911
v -2.148618 1.423474 0.950946
v -2.148618 1.423474 0.316982
v -2.148619 1.760945 1.584910
v -2.148619 1.760945 0.950946
v -2.148618 1.760945 0.316982
v -0.979782 1.760945 -2.123106
v -1.632970 1.760945 -2.123106
v -0.326594 1.423474 -2.123106
v -0.979782 1.423474 -2.123106
v -1.632970 1.423474 -2.123106
v -0.326594 1.086004 -2.123106
v -0.979782 1.086004 -2.123106
v -1.632970 1.086004 -2.123106
vn 0.0000 1.0000 0.0000
vn 0.0000 -1.0000 -0.0000
vn -0.3814 0.9244 -0.0000
vn 0.0000 0.9203 -0.3912
vn -0.0000 0.9203 0.3912
vn 0.3814 0.9244 0.0000
vn 1.0000 0.0000 0.0000
vn -0.0000 -0.0000 1.0000
vn -1.0000 0.0000 0.0000
vn 0.0000 0.0000 -1.0000
usemtl (null)
s off
f 266//1 265//1 273//1 274//1
usemtl Material.007
f 8//2 85//2 84//2 83//2 82//2 81//2 80//2 7//2 12//2 11//2
f 11//3 12//3 13//3
f 5//2 68//2 69//2 70//2 71//2 72//2 73//2 8//2 11//2 9//2
f 7//2 79//2 78//2 77//2 76//2 75//2 74//2 6//2 10//2 12//2
f 6//2 67//2 66//2 65//2 64//2 63//2 62//2 5//2 9//2 10//2
f 9//4 11//4 13//4
f 12//5 10//5 13//5
f 10//6 9//6 13//6
usemtl Material.008
f 264//2 37//2 3//2 44//2
f 228//7 67//7 6//7 43//7
f 192//8 79//8 7//8 55//8
f 156//9 85//9 8//9 61//9
f 120//10 25//10 4//10 56//10
f 73//10 91//10 61//10 8//10
f 91//10 97//10 60//10 61//10
f 97//10 102//10 59//10 60//10
f 102//10 108//10 58//10 59//10
f 108//10 114//10 57//10 58//10
f 114//10 120//10 56//10 57//10
f 5//10 31//10 86//10 68//10
f 68//10 86//10 87//10 69//10
f 69//10 87//10 88//10 70//10
f 70//10 88//10 89//10 71//10
f 71//10 89//10 90//10 72//10
f 72//10 90//10 91//10 73//10
f 31//10 30//10 92//10 86//10
f 86//10 92//10 93//10 87//10
f 87//10 93//10 94//10 88//10
f 88//10 94//10 95//10 89//10
f 89//10 95//10 96//10 90//10
f 90//10 96//10 97//10 91//10
f 30//10 29//10 98//10 92//10
f 92//10 98//10 99//10 93//10
f 93//10 99//10 100//10 94//10
f 94//10 100//10 101//10 95//10
f 96//2 95//2 140//2 338//2
f 107//1 108//1 345//1 344//1
f 29//10 28//10 103//10 98//10
f 98//10 103//10 104//10 99//10
f 99//10 104//10 105//10 100//10
f 100//10 105//10 106//10 101//10
f 97//2 96//2 338//2 339//2
f 95//9 101//9 340//9 140//9
f 28//10 27//10 109//10 103//10
f 103//10 109//10 110//10 104//10
f 104//10 110//10 111//10 105//10
f 105//10 111//10 112//10 106//10
f 106//10 112//10 113//10 107//10
f 107//10 113//10 114//10 108//10
f 27//10 26//10 115//10 109//10
f 109//10 115//10 116//10 110//10
f 110//10 116//10 117//10 111//10
f 111//10 117//10 118//10 112//10
f 112//10 118//10 119//10 113//10
f 113//10 119//10 120//10 114//10
f 26//10 1//10 20//10 115//10
f 115//10 20//10 21//10 116//10
f 116//10 21//10 22//10 117//10
f 117//10 22//10 23//10 118//10
f 118//10 23//10 24//10 119//10
f 119//10 24//10 25//10 120//10
f 49//9 126//9 56//9 4//9
f 126//9 132//9 57//9 56//9
f 132//9 138//9 58//9 57//9
f 138//9 144//9 59//9 58//9
f 144//9 150//9 60//9 59//9
f 150//9 156//9 61//9 60//9
f 3//9 50//9 121//9 44//9
f 44//9 121//9 122//9 45//9
f 45//9 122//9 123//9 46//9
f 46//9 123//9 124//9 47//9
f 47//9 124//9 125//9 48//9
f 48//9 125//9 126//9 49//9
f 50//9 51//9 127//9 121//9
f 121//9 127//9 128//9 122//9
f 122//9 128//9 129//9 123//9
f 123//9 129//9 130//9 124//9
f 124//9 130//9 131//9 125//9
f 125//9 131//9 132//9 126//9
f 51//9 52//9 133//9 127//9
f 127//9 133//9 134//9 128//9
f 128//9 134//9 135//9 129//9
f 129//9 135//9 136//9 130//9
f 130//9 136//9 137//9 131//9
f 131//9 137//9 138//9 132//9
f 52//9 53//9 139//9 133//9
f 146//2 147//2 337//2 336//2
f 139//10 145//10 335//10 332//10
f 135//9 141//9 142//9 136//9
f 136//9 142//9 143//9 137//9
f 137//9 143//9 144//9 138//9
f 53//9 54//9 145//9 139//9
f 147//8 141//8 334//8 337//8
f 135//1 134//1 330//1 331//1
f 141//9 147//9 148//9 142//9
f 142//9 148//9 149//9 143//9
f 143//9 149//9 150//9 144//9
f 54//9 55//9 151//9 145//9
f 145//9 151//9 152//9 146//9
f 146//9 152//9 153//9 147//9
f 147//9 153//9 154//9 148//9
f 148//9 154//9 155//9 149//9
f 149//9 155//9 156//9 150//9
f 55//9 7//9 80//9 151//9
f 151//9 80//9 81//9 152//9
f 152//9 81//9 82//9 153//9
f 153//9 82//9 83//9 154//9
f 154//9 83//9 84//9 155//9
f 155//9 84//9 85//9 156//9
f 37//8 162//8 50//8 3//8
f 162//8 168//8 51//8 50//8
f 168//8 174//8 52//8 51//8
f 174//8 180//8 53//8 52//8
f 180//8 186//8 54//8 53//8
f 186//8 192//8 55//8 54//8
f 2//8 38//8 157//8 32//8
f 32//8 157//8 158//8 33//8
f 33//8 158//8 159//8 34//8
f 34//8 159//8 160//8 35//8
f 161//8 36//8 266//8 268//8
f 36//8 161//8 162//8 37//8
f 38//8 39//8 163//8 157//8
f 157//8 163//8 164//8 158//8
f 158//8 164//8 165//8 159//8
f 159//8 165//8 166//8 160//8
f 36//8 35//8 265//8 266//8
f 161//8 167//8 168//8 162//8
f 39//8 40//8 169//8 163//8
f 163//8 169//8 170//8 164//8
f 164//8 170//8 171//8 165//8
f 165//8 171//8 172//8 166//8
f 166//8 172//8 271//8 269//8
f 167//8 173//8 174//8 168//8
f 40//8 41//8 175//8 169//8
f 215//8 292//8 308//8 305//8
f 171//8 170//8 298//8 299//8
f 171//8 177//8 178//8 172//8
f 172//8 178//8 179//8 173//8
f 173//8 179//8 180//8 174//8
f 41//8 42//8 181//8 175//8
f 296//8 297//8 312//8 311//8
f 183//8 177//8 301//8 304//8
f 177//8 183//8 184//8 178//8
f 178//8 184//8 185//8 179//8
f 179//8 185//8 186//8 180//8
f 42//8 43//8 187//8 181//8
f 181//8 187//8 188//8 182//8
f 182//8 188//8 189//8 183//8
f 183//8 189//8 190//8 184//8
f 184//8 190//8 191//8 185//8
f 185//8 191//8 192//8 186//8
f 43//8 6//8 74//8 187//8
f 187//8 74//8 75//8 188//8
f 188//8 75//8 76//8 189//8
f 189//8 76//8 77//8 190//8
f 190//8 77//8 78//8 191//8
f 191//8 78//8 79//8 192//8
f 19//7 198//7 38//7 2//7
f 198//7 204//7 39//7 38//7
f 204//7 210//7 40//7 39//7
f 210//7 216//7 41//7 40//7
f 216//7 222//7 42//7 41//7
f 222//7 228//7 43//7 42//7
f 1//7 26//7 193//7 14//7
f 14//7 193//7 194//7 15//7
f 15//7 194//7 195//7 16//7
f 16//7 195//7 196//7 17//7
f 17//7 196//7 197//7 18//7
f 18//7 197//7 198//7 19//7
f 26//7 27//7 199//7 193//7
f 193//7 199//7 200//7 194//7
f 194//7 200//7 201//7 195//7
f 195//7 201//7 202//7 196//7
f 196//7 202//7 203//7 197//7
f 197//7 203//7 204//7 198//7
f 27//7 28//7 205//7 199//7
f 199//7 205//7 206//7 200//7
f 200//7 206//7 207//7 201//7
f 201//7 207//7 208//7 202//7
f 202//7 208//7 209//7 203//7
f 203//7 209//7 210//7 204//7
f 28//7 29//7 211//7 205//7
f 206//1 205//1 215//1 290//1
f 205//8 211//8 292//8 215//8
f 207//7 213//7 214//7 208//7
f 221//2 222//2 289//2 288//2
f 214//8 220//8 287//8 284//8
f 29//7 30//7 217//7 211//7
f 213//10 207//10 291//10 294//10
f 218//2 219//2 297//2 296//2
f 213//7 219//7 220//7 214//7
f 222//10 216//10 286//10 289//10
f 210//1 209//1 282//1 283//1
f 30//7 31//7 223//7 217//7
f 217//7 223//7 224//7 218//7
f 218//7 224//7 225//7 219//7
f 219//7 225//7 226//7 220//7
f 220//7 226//7 227//7 221//7
f 221//7 227//7 228//7 222//7
f 31//7 5//7 62//7 223//7
f 223//7 62//7 63//7 224//7
f 224//7 63//7 64//7 225//7
f 225//7 64//7 65//7 226//7
f 226//7 65//7 66//7 227//7
f 227//7 66//7 67//7 228//7
f 25//2 234//2 49//2 4//2
f 234//2 240//2 48//2 49//2
f 240//2 246//2 47//2 48//2
f 246//2 252//2 46//2 47//2
f 252//2 258//2 45//2 46//2
f 258//2 264//2 44//2 45//2
f 1//2 14//2 229//2 20//2
f 20//2 229//2 230//2 21//2
f 21//2 230//2 231//2 22//2
f 22//2 231//2 232//2 23//2
f 23//2 232//2 233//2 24//2
f 24//2 233//2 234//2 25//2
f 14//2 15//2 235//2 229//2
f 229//2 235//2 236//2 230//2
f 230//2 236//2 237//2 231//2
f 231//2 237//2 238//2 232//2
f 232//2 238//2 239//2 233//2
f 233//2 239//2 240//2 234//2
f 15//2 16//2 241//2 235//2
f 235//2 241//2 242//2 236//2
f 236//2 242//2 243//2 237//2
f 237//2 243//2 244//2 238//2
f 238//2 244//2 245//2 239//2
f 239//2 245//2 246//2 240//2
f 16//2 17//2 247//2 241//2
f 241//2 247//2 248//2 242//2
f 242//2 248//2 249//2 243//2
f 243//2 249//2 250//2 244//2
f 244//2 250//2 251//2 245//2
f 245//2 251//2 252//2 246//2
f 17//2 18//2 253//2 247//2
f 247//2 253//2 254//2 248//2
f 248//2 254//2 255//2 249//2
f 249//2 255//2 256//2 250//2
f 250//2 256//2 257//2 251//2
f 251//2 257//2 258//2 252//2
f 18//2 19//2 259//2 253//2
f 253//2 259//2 260//2 254//2
f 254//2 260//2 261//2 255//2
f 255//2 261//2 262//2 256//2
f 256//2 262//2 263//2 257//2
f 257//2 263//2 264//2 258//2
f 19//2 2//2 32//2 259//2
f 259//2 32//2 33//2 260//2
f 260//2 33//2 34//2 261//2
f 261//2 34//2 35//2 262//2
f 262//2 35//2 36//2 263//2
f 263//2 36//2 37//2 264//2
f 160//8 166//8 269//8 267//8
f 173//8 167//8 270//8 272//8
f 35//8 160//8 267//8 265//8
f 167//8 161//8 268//8 270//8
f 172//8 173//8 272//8 271//8
f 216//10 210//10 283//10 286//10
f 208//8 214//8 284//8 281//8
f 209//1 208//1 281//1 282//1
f 220//2 221//2 288//2 287//2
f 182//8 183//8 304//8 303//8
f 170//8 169//8 212//8 298//8
f 169//8 175//8 300//8 212//8
f 295//8 296//8 311//8 310//8
f 217//2 218//2 296//2 295//2
f 207//1 206//1 290//1 291//1
f 219//10 213//10 294//10 297//10
f 211//8 217//8 295//8 292//8
f 212//9 300//9 314//9 293//9
f 307//8 306//8 321//8 322//8
f 309//8 307//8 322//8 325//8
f 303//2 304//2 319//2 318//2
f 306//8 305//8 320//8 321//8
f 302//2 303//2 318//2 317//2
f 304//7 301//7 316//7 319//7
f 305//8 308//8 323//8 320//8
f 177//8 171//8 299//8 301//8
f 290//8 215//8 305//8 306//8
f 294//8 291//8 307//8 309//8
f 291//8 290//8 306//8 307//8
f 292//8 295//8 310//8 308//8
f 175//8 181//8 302//8 300//8
f 297//8 294//8 309//8 312//8
f 181//8 182//8 303//8 302//8
f 308//8 310//8 326//8 323//8
f 298//1 212//1 293//1 176//1
f 301//7 299//7 313//7 316//7
f 312//8 309//8 325//8 328//8
f 299//1 298//1 176//1 313//1
f 310//8 311//8 327//8 326//8
f 300//9 302//9 317//9 314//9
f 311//8 312//8 328//8 327//8
f 141//8 135//8 331//8 334//8
f 133//10 139//10 332//10 329//10
f 134//1 133//1 329//1 330//1
f 145//2 146//2 336//2 335//2
f 108//7 102//7 342//7 345//7
f 101//9 106//9 343//9 340//9
f 102//7 97//7 339//7 342//7
f 106//1 107//1 344//1 343//1
usemtl Material.009
f 281//7 284//7 285//7 282//7
f 282//7 285//7 286//7 283//7
f 284//7 287//7 288//7 285//7
f 285//7 288//7 289//7 286//7
f 293//8 314//8 315//8 176//8
f 176//8 315//8 316//8 313//8
f 314//8 317//8 318//8 315//8
f 315//8 318//8 319//8 316//8
f 320//7 323//7 324//7 321//7
f 321//7 324//7 325//7 322//7
f 323//7 326//7 327//7 324//7
f 324//7 327//7 328//7 325//7
f 329//9 332//9 333//9 330//9
f 330//9 333//9 334//9 331//9
f 332//9 335//9 336//9 333//9
f 333//9 336//9 337//9 334//9
f 140//10 340//10 341//10 338//10
f 338//10 341//10 342//10 339//10
f 340//10 343//10 344//10 341//10
f 341//10 344//10 345//10 342//10
usemtl Material.010
f 269//9 271//9 279//9 277//9
f 271//2 272//2 280//2 279//2
f 268//7 266//7 274//7 276//7
f 273//8 275//8 276//8 274//8
f 275//8 277//8 278//8 276//8
f 277//8 279//8 280//8 278//8
f 267//9 269//9 277//9 275//9
f 265//9 267//9 275//9 273//9
f 272//7 270//7 278//7 280//7
f 270//7 268//7 276//7 278//7
